<?xml version="1.0" encoding="UTF-8"?>
<svg id="BORG_AUTOMOTIVE_REMAN_BLUE" xmlns="http://www.w3.org/2000/svg" version="1.1" viewBox="0 0 1024.52 47.32">
  <defs>
    <style>
      .cls-1 {
        fill: #000;
      }

      .cls-1, .cls-2, .cls-3 {
        stroke-width: 0px;
      }

      .cls-2 {
        fill: #dc1f2f;
      }

      .cls-3 {
        display: none;
        fill: #fff;
      }
    </style>
  </defs>
  <rect class="cls-3" x="58.38" y="-527.13" width="1202.76" height="841.89"/>
  <g>
    <path class="cls-2" d="M319.08,35.43h-14.17l-3.19,10.99h-9.17L308.16.91h7.61l15.73,45.5h-9.1l-3.31-10.99ZM306.86,28.41h10.21l-5.14-17.42-5.07,17.42Z"/>
    <path class="cls-2" d="M344.24.91h8.39v30.81c0,5.33,2.79,8.25,7.35,8.25s7.34-2.92,7.34-8.25V.91h8.32v31.66c0,9.04-6.24,14.76-15.67,14.76s-15.73-5.72-15.73-14.76V.91Z"/>
    <path class="cls-2" d="M401.18,8.26h-11.57V.91h31.46v7.35h-11.57v38.16h-8.32V8.26Z"/>
    <path class="cls-2" d="M432.9,14.76c0-9.17,7.34-14.76,16.38-14.76s16.38,5.59,16.38,14.76v17.75c0,9.17-7.34,14.82-16.38,14.82s-16.38-5.66-16.38-14.82V14.76ZM441.28,31.72c0,5.4,3.58,8.19,8,8.19s8-2.79,8-8.19V15.6c0-5.39-3.58-8.25-8-8.25s-8,2.86-8,8.25v16.12Z"/>
    <path class="cls-2" d="M483.72.91h6.83l12.35,25.74,12.35-25.74h6.83v45.5h-8.32l.26-26.46-7.15,14.89h-8.45l-6.63-13.98.19,25.55h-8.25V.91Z"/>
    <path class="cls-2" d="M540.21,14.76c0-9.17,7.34-14.76,16.38-14.76s16.38,5.59,16.38,14.76v17.75c0,9.17-7.34,14.82-16.38,14.82s-16.38-5.66-16.38-14.82V14.76ZM548.59,31.72c0,5.4,3.58,8.19,8,8.19s8-2.79,8-8.19V15.6c0-5.39-3.58-8.25-8-8.25s-8,2.86-8,8.25v16.12Z"/>
    <path class="cls-2" d="M598.97,8.26h-11.57V.91h31.46v7.35h-11.57v38.16h-8.32V8.26Z"/>
    <path class="cls-2" d="M636.08.91h8.32v45.5h-8.32V.91Z"/>
    <path class="cls-2" d="M678.72,36.34l9.55-35.43h9.17l-14.89,45.5h-7.67l-15.02-45.5h9.17l9.69,35.43Z"/>
    <path class="cls-2" d="M712.91.91h26.91v7.41h-18.59v11.31h15.47v7.28h-15.47v12.16h19.05v7.35h-27.37V.91Z"/>
    <path class="cls-2" d="M795.85,46.41h-8.32V.91h16.71c9.17,0,14.82,5.07,14.82,14.17v2.41c0,6.43-2.86,10.92-8.19,12.67l9.62,16.25h-9.62l-10.33-17.68v-4.36h3.77c4.23,0,6.44-2.14,6.44-7.67v-.84c0-5.27-2.28-7.54-6.5-7.54h-8.39v38.09Z"/>
    <path class="cls-2" d="M839.01.91h26.91v7.41h-18.59v11.31h15.47v7.28h-15.47v12.16h19.05v7.35h-27.37V.91Z"/>
    <path class="cls-2" d="M885.16.91h6.83l12.35,25.74,12.35-25.74h6.83v45.5h-8.32l.26-26.46-7.15,14.89h-8.45l-6.63-13.98.2,25.55h-8.26V.91Z"/>
    <path class="cls-2" d="M964.07,35.43h-14.17l-3.18,10.99h-9.17l15.6-45.5h7.6l15.73,45.5h-9.1l-3.32-10.99ZM951.85,28.41h10.21l-5.14-17.42-5.07,17.42Z"/>
    <path class="cls-2" d="M991.89.91h8.45l16.19,29.84-.26-29.84h8.25v45.5h-8.58l-16.06-29.64.26,29.64h-8.26V.91Z"/>
  </g>
  <g>
    <path class="cls-1" d="M111.17,11.81h-33.18c-1.9,0-2.77,1.04-2.77,3.18v20.51s33.15,0,33.15,0c1.89,0,2.8-1.35,2.8-3.4V11.81ZM65.27,46.4c-.53,0-.96-.43-.96-.95V13.79c0-4.48,1.01-7.75,3.09-9.8,2.11-2.07,5.39-3.08,9.92-3.08h43.79c.53,0,.99.43.99.95v31.65c0,8.57-4.31,12.89-12.98,12.89h-43.85Z"/>
    <path class="cls-1" d="M174.72,31.44c7.81,0,11.69-4.25,11.69-12.73v-4.88c0-8.61-4.32-12.92-12.98-12.92h-43.85c-.53,0-.96.43-.96.96v8.99c0,.53.43.96.96.96h43.13c1.89,0,2.84,1.01,2.84,3.12v2.68c0,2.08-.95,3.12-2.84,3.12h-43.13c-.53,0-.96.43-.96.96v23.76c0,.53.42.96.95.96h8.99c.53,0,.96-.43.96-.95v-13.81h11.48c3.44,0,6.27.47,8.51,1.41,2.23.98,4.47,2.52,6.68,4.73l8.01,8.34c.17.18.42.28.67.28,5.09,0,6.61,0,12.7,0,.86,0,1.28-1.05.66-1.64-8.67-8.38-13.53-13.18-13.5-13.3"/>
    <path class="cls-1" d="M57.86,13.16c0-8.16-4.54-12.26-13.61-12.26H.96c-.53,0-.96.43-.96.96v8.99c0,.53.43.96.96.96h43.19c1.85,0,2.8,1.09,2.8,3.2,0,1.74-.76,2.97-2.33,3.2H.96c-.53,0-.96.43-.96.96v8.99c0,.53.43.96.96.96h43.67c1.57.22,2.33,1.27,2.33,3.2,0,2.05-.95,3.2-2.8,3.2H.96c-.53,0-.96.43-.96.96v8.99c0,.53.43.96.96.96h43.29c9.07,0,13.61-4.1,13.61-12.29v-2.96c0-3.03-1.01-5.51-3.06-7.43,2.05-2.11,3.06-4.6,3.06-7.5v-3.05Z"/>
    <path class="cls-1" d="M205.94,11.81h43.12c.53,0,.96-.43.96-.96V1.86c0-.53-.43-.96-.96-.96h-43.75c-4.57,0-7.88,1.01-9.96,3.08-2.08,2.05-3.12,5.32-3.12,9.8v31.66c0,.53.43.96.96.96h43.85c8.63,0,12.98-4.32,12.98-12.89v-14.35c0-.53-.43-.96-.96-.96h-20.98c-.53,0-.96.43-.96.96v8.99c0,.53.43.96.96.96h11.04v3.3c0,2.05-.94,3.09-2.81,3.09h-33.18V14.99c0-2.14.94-3.18,2.81-3.18"/>
  </g>
</svg>