<?xml version="1.0" encoding="UTF-8"?>
<svg id="Calque_1" data-name="Calque 1" xmlns="http://www.w3.org/2000/svg" viewBox="0 0 841.89 595.28">
  <defs>
    <style>
      .cls-1 {
        fill: #0f152b;
      }

      .cls-2 {
        fill: #006fb6;
      }

      .cls-3 {
        fill: #dcdbdb;
      }
    </style>
  </defs>
  <g>
    <path class="cls-2" d="M156.84,352.37v8.69h-13.1v32.54h-9.28v-32.54h-13.1v-8.69h35.63-.15ZM159.78,352.37v8.69h13.1v32.54h9.28v-32.54h13.1v-8.69h-35.63.15ZM108.11,383.87c-.15-.44-12.66-24.73-14.13-27.24-1.77-2.8-3.83-4.71-7.95-4.71s-8.24,1.77-8.24,10.89v30.77h9.13v-25.76c0-1.91,0-4.56-.15-5.15,0-.44,0-.88.15-1.03.29-.15.59,0,.74.44.15.29,11.78,23.26,14.13,27.24,1.77,2.8,3.83,4.71,7.95,4.71s8.24-1.77,8.24-10.89v-30.77h-9.13v30.92c0,.59,0,.88-.15,1.03-.29.15-.59,0-.74-.44h.15Z"/>
    <path class="cls-2" d="M153.95,200.79c-6.49,0-12.99,1.37-17.43,3.42-4.44-2.05-10.94-3.42-17.43-3.42-28.71,0-54.34,27-54.34,64.59s33.15,72.11,71.77,72.11,71.77-31.44,71.77-72.11-25.63-64.59-54.34-64.59ZM136.52,223.01c5.47,3.42,12.64,12.99,12.64,23.58s-5.13,14.01-12.64,14.01-12.64-6.15-12.64-14.01,7.18-20.51,12.64-23.58ZM136.52,319.73c-29.73,0-54.34-23.92-54.34-54.68s20.16-47.16,35.88-46.48c-7.52,7.52-11.96,18.45-11.96,29.05,0,18.11,14.35,31.1,30.42,31.1s30.42-12.64,30.42-31.1-4.44-21.53-11.96-29.05c15.72-.68,35.88,18.45,35.88,46.48s-24.61,54.68-54.34,54.68Z"/>
  </g>
  <rect class="cls-3" x="251.67" y="200.79" width="1.5" height="193.24"/>
  <g>
    <polygon class="cls-2" points="296.55 238.47 317.07 238.47 317.07 315.28 331 315.28 331 238.47 351.45 238.47 351.45 225.31 296.55 225.31 296.55 238.47"/>
    <path class="cls-2" d="M383.95,256.78c-2.6,0-4.89.5-6.81,1.47-1.76.88-3.78,2.49-6.02,4.79v-4.7h-13.47v56.93h13.47v-29.51c0-10.54,3.5-15.88,10.4-15.88,2.29,0,4.67.88,7.09,2.62l.22.16,6.17-12.38-.19-.11c-3.76-2.25-7.41-3.39-10.87-3.39Z"/>
    <path class="cls-2" d="M443.78,264.56c-5.13-5.16-10.97-7.78-17.39-7.78-7.62,0-14.06,2.87-19.13,8.54-5.06,5.66-7.63,12.83-7.63,21.31s2.57,15.95,7.63,21.72c5.11,5.67,11.66,8.54,19.47,8.54,6.05,0,11.78-2.43,17.05-7.24v5.61h13.52v-56.93h-13.52v6.21ZM440.2,299.87c-2.9,3.26-6.77,4.91-11.5,4.91-4.42,0-8.13-1.71-11.04-5.08-2.84-3.34-4.28-7.74-4.28-13.07,0-4.98,1.48-9.22,4.39-12.6,2.94-3.33,6.66-5.02,11.03-5.02,4.65,0,8.48,1.67,11.38,4.96,2.92,3.38,4.39,7.73,4.39,12.95s-1.48,9.57-4.39,12.95Z"/>
    <path class="cls-2" d="M503.1,256.78c-5.57,0-10.66,2.17-15.14,6.46v-4.9h-13.52v56.93h13.52v-27.48c0-6.96.88-11.89,2.62-14.66,1.76-2.77,4.78-4.18,8.99-4.18,3.87,0,6.56,1.06,8.02,3.15,1.5,2.08,2.27,5.91,2.27,11.4v31.77h13.52v-34.84c0-7.98-1.61-13.83-4.8-17.37-3.69-4.17-8.9-6.28-15.49-6.28Z"/>
    <path class="cls-2" d="M559.67,279.18c-4.89-2.07-7.37-4.17-7.37-6.22,0-1.18.39-2.12,1.2-2.87.8-.75,1.77-1.13,2.9-1.13,2.4,0,4.44,1.71,6.09,5.09l.11.22,11.16-5.96-.09-.2c-3.53-7.51-9.01-11.32-16.27-11.32-4.93,0-9.18,1.64-12.64,4.88-3.38,3.24-5.1,7.39-5.1,12.34,0,3.75,1.01,6.86,3,9.25,1.56,1.87,4.26,3.77,8.05,5.63,1.35.66,2.68,1.3,3.99,1.91,1.31.62,2.63,1.26,3.91,1.9,3.3,1.96,4.97,4.07,4.97,6.29,0,3.9-2.08,5.8-6.35,5.8-2.13,0-3.98-.72-5.51-2.14-.79-.72-1.96-2.44-3.48-5.1l-.11-.19-11.49,5.35.09.21c3.95,9.29,10.77,14,20.27,14,5.54,0,10.34-1.78,14.26-5.28,4.04-3.7,6.08-8.36,6.08-13.85,0-4.29-1.23-7.76-3.65-10.31-2.4-2.52-7.11-5.31-14-8.29Z"/>
    <path class="cls-2" d="M631.2,264.56c-5.13-5.16-10.97-7.78-17.39-7.78-7.62,0-14.06,2.87-19.13,8.54-5.06,5.66-7.63,12.83-7.63,21.31s2.57,15.95,7.63,21.72c5.11,5.67,11.66,8.54,19.47,8.54,6.05,0,11.78-2.43,17.05-7.24v5.61h13.52v-56.93h-13.52v6.21ZM627.62,273.98c2.92,3.38,4.39,7.74,4.39,12.95s-1.48,9.57-4.39,12.95c-2.91,3.26-6.77,4.91-11.5,4.91-4.42,0-8.13-1.71-11.04-5.08-2.84-3.34-4.28-7.74-4.28-13.07,0-4.98,1.48-9.22,4.39-12.6,2.94-3.33,6.66-5.02,11.03-5.02,4.65,0,8.48,1.67,11.38,4.96Z"/>
    <polygon class="cls-2" points="675.72 237.65 662.25 237.65 662.25 258.35 656.71 258.35 656.71 270.99 662.25 270.99 662.25 315.28 675.72 315.28 675.72 270.99 685.84 270.99 685.84 258.35 675.72 258.35 675.72 237.65"/>
    <path class="cls-2" d="M737.38,293.8l-.12.19c-2.63,4.13-5,7-7.05,8.52-2.07,1.51-4.72,2.27-7.89,2.27-4.08,0-7.46-1.34-10.06-3.99-2.56-2.64-4.05-6.24-4.42-10.68h40.31l.06-3.31c0-9.33-2.43-16.73-7.23-22.01-4.84-5.32-11.51-8.02-19.82-8.02s-14.94,2.78-19.94,8.25c-4.95,5.54-7.46,12.89-7.46,21.84s2.59,16.37,7.69,21.84c5.11,5.43,11.97,8.19,20.39,8.19,2.93,0,5.69-.31,8.2-.93,2.51-.62,4.89-1.62,7.06-2.96,2.17-1.34,4.23-3.07,6.12-5.14,1.89-2.07,3.7-4.59,5.4-7.49l.12-.21-11.19-6.26-.19-.11ZM708.76,278.98c.41-1.47,1-2.81,1.74-3.99.79-1.25,1.76-2.33,2.87-3.22,1.11-.89,2.36-1.58,3.72-2.05,1.35-.47,2.83-.71,4.37-.71,6.68,0,10.99,3.35,12.81,9.97h-25.51Z"/>
    <rect class="cls-2" x="763.09" y="216.9" width="13.47" height="98.38"/>
  </g>
  <g>
    <path class="cls-1" d="M445.12,363.13h9.68v14c-1.52.51-3.05.88-4.59,1.12-1.54.24-3.29.36-5.25.36-2.9,0-5.35-.59-7.33-1.78-1.99-1.19-3.5-2.88-4.53-5.08-1.03-2.2-1.55-4.81-1.55-7.82s.57-5.57,1.73-7.76c1.15-2.19,2.8-3.89,4.96-5.1,2.16-1.21,4.76-1.82,7.82-1.82,1.57,0,3.05.15,4.45.44s2.7.71,3.9,1.24l-1.33,3.12c-.99-.45-2.11-.84-3.35-1.16-1.24-.32-2.53-.48-3.86-.48-3.35,0-5.95,1.03-7.82,3.08-1.87,2.05-2.8,4.87-2.8,8.44,0,2.27.36,4.27,1.08,6.02.72,1.75,1.85,3.11,3.39,4.08,1.54.97,3.57,1.46,6.08,1.46,1.23,0,2.27-.07,3.14-.2.86-.13,1.65-.29,2.35-.48v-8.48h-6.16v-3.2Z"/>
    <path class="cls-1" d="M464.06,378.21h-3.45v-30.4h3.45v30.4Z"/>
    <path class="cls-1" d="M488.56,367.45c0,3.55-.88,6.29-2.65,8.24-1.76,1.95-4.15,2.92-7.16,2.92-1.86,0-3.51-.43-4.96-1.3-1.45-.87-2.59-2.13-3.43-3.8s-1.25-3.69-1.25-6.06c0-3.55.88-6.28,2.63-8.2,1.75-1.92,4.13-2.88,7.14-2.88,1.91,0,3.59.43,5.04,1.3,1.45.87,2.59,2.12,3.41,3.76.82,1.64,1.24,3.65,1.24,6.02ZM472.68,367.45c0,2.53.49,4.54,1.47,6.02.98,1.48,2.54,2.22,4.69,2.22s3.67-.74,4.67-2.22c.99-1.48,1.49-3.49,1.49-6.02s-.5-4.52-1.49-5.96c-.99-1.44-2.56-2.16-4.7-2.16s-3.7.72-4.67,2.16c-.97,1.44-1.45,3.43-1.45,5.96Z"/>
    <path class="cls-1" d="M497.03,355.21c0,.91-.02,1.75-.06,2.54s-.09,1.41-.14,1.86h.2c.6-.91,1.42-1.67,2.47-2.28,1.04-.61,2.39-.92,4.04-.92,2.61,0,4.71.93,6.29,2.78,1.58,1.85,2.37,4.62,2.37,8.3s-.8,6.45-2.39,8.32c-1.59,1.87-3.69,2.8-6.27,2.8-1.65,0-2.99-.31-4.04-.92-1.05-.61-1.87-1.35-2.47-2.2h-.27l-.7,2.72h-2.47v-30.4h3.45v7.4ZM502.95,359.33c-2.22,0-3.76.65-4.63,1.96-.86,1.31-1.29,3.33-1.29,6.08v.16c0,2.64.42,4.66,1.27,6.06.85,1.4,2.42,2.1,4.72,2.1,1.88,0,3.29-.71,4.21-2.12.93-1.41,1.39-3.45,1.39-6.12,0-5.41-1.9-8.12-5.69-8.12Z"/>
    <path class="cls-1" d="M525.23,356.41c2.56,0,4.46.57,5.68,1.72,1.23,1.15,1.84,2.97,1.84,5.48v14.6h-2.51l-.67-3.04h-.16c-.92,1.17-1.88,2.04-2.88,2.6s-2.4.84-4.18.84c-1.91,0-3.49-.51-4.74-1.54s-1.88-2.63-1.88-4.82.82-3.78,2.47-4.94c1.65-1.16,4.18-1.79,7.61-1.9l3.57-.12v-1.28c0-1.79-.38-3.03-1.14-3.72-.76-.69-1.83-1.04-3.22-1.04-1.1,0-2.14.17-3.14.5s-1.92.71-2.78,1.14l-1.06-2.64c.92-.51,2-.94,3.25-1.3,1.25-.36,2.56-.54,3.92-.54ZM526.24,367.85c-2.61.11-4.43.53-5.43,1.28-1.01.75-1.51,1.8-1.51,3.16,0,1.2.36,2.08,1.08,2.64s1.64.84,2.76.84c1.78,0,3.25-.5,4.43-1.5,1.18-1,1.76-2.54,1.76-4.62v-1.92l-3.1.12Z"/>
    <path class="cls-1" d="M542.28,378.21h-3.45v-30.4h3.45v30.4Z"/>
    <path class="cls-1" d="M570.75,352.41c-3.01,0-5.37,1.03-7.1,3.08-1.73,2.05-2.59,4.87-2.59,8.44s.8,6.35,2.41,8.42c1.61,2.07,4.02,3.1,7.23,3.1,1.23,0,2.39-.11,3.49-.32,1.1-.21,2.17-.48,3.21-.8v3.12c-1.05.4-2.12.69-3.23.88-1.11.19-2.44.28-3.98.28-2.85,0-5.23-.6-7.14-1.8-1.91-1.2-3.34-2.91-4.29-5.12-.95-2.21-1.43-4.81-1.43-7.8s.52-5.42,1.55-7.62c1.03-2.2,2.55-3.92,4.57-5.16,2.01-1.24,4.46-1.86,7.33-1.86s5.53.56,7.72,1.68l-1.41,3.04c-.86-.4-1.82-.76-2.88-1.08-1.06-.32-2.22-.48-3.47-.48Z"/>
    <path class="cls-1" d="M600.9,367.45c0,3.55-.88,6.29-2.65,8.24-1.76,1.95-4.15,2.92-7.16,2.92-1.86,0-3.51-.43-4.96-1.3-1.45-.87-2.59-2.13-3.43-3.8-.84-1.67-1.25-3.69-1.25-6.06,0-3.55.88-6.28,2.63-8.2,1.75-1.92,4.13-2.88,7.14-2.88,1.91,0,3.59.43,5.04,1.3,1.45.87,2.59,2.12,3.41,3.76.82,1.64,1.24,3.65,1.24,6.02ZM585.02,367.45c0,2.53.49,4.54,1.47,6.02.98,1.48,2.54,2.22,4.69,2.22s3.67-.74,4.67-2.22c.99-1.48,1.49-3.49,1.49-6.02s-.5-4.52-1.49-5.96c-.99-1.44-2.56-2.16-4.7-2.16s-3.7.72-4.67,2.16c-.97,1.44-1.45,3.43-1.45,5.96Z"/>
    <path class="cls-1" d="M616.03,356.37c2.51,0,4.4.62,5.69,1.86,1.28,1.24,1.92,3.25,1.92,6.02v13.96h-3.41v-13.72c0-3.44-1.57-5.16-4.7-5.16-2.33,0-3.93.67-4.82,2-.89,1.33-1.33,3.25-1.33,5.76v11.12h-3.45v-21.44h2.78l.51,2.92h.2c.68-1.12,1.62-1.95,2.82-2.5s2.47-.82,3.8-.82Z"/>
    <path class="cls-1" d="M639.83,356.37c2.51,0,4.4.62,5.69,1.86,1.28,1.24,1.92,3.25,1.92,6.02v13.96h-3.41v-13.72c0-3.44-1.57-5.16-4.7-5.16-2.33,0-3.93.67-4.82,2-.89,1.33-1.33,3.25-1.33,5.76v11.12h-3.45v-21.44h2.78l.51,2.92h.2c.68-1.12,1.62-1.95,2.82-2.5s2.47-.82,3.8-.82Z"/>
    <path class="cls-1" d="M661.63,356.37c1.8,0,3.35.4,4.65,1.2s2.29,1.93,2.98,3.38c.69,1.45,1.04,3.15,1.04,5.1v2.12h-14.39c.05,2.43.66,4.27,1.82,5.54,1.16,1.27,2.79,1.9,4.88,1.9,1.33,0,2.52-.13,3.55-.38,1.03-.25,2.1-.62,3.2-1.1v3.08c-1.07.48-2.13.83-3.18,1.06-1.05.23-2.29.34-3.72.34-1.99,0-3.74-.41-5.27-1.24-1.53-.83-2.72-2.06-3.57-3.7-.85-1.64-1.27-3.65-1.27-6.02s.39-4.36,1.16-6.04c.77-1.68,1.86-2.97,3.25-3.88s3.03-1.36,4.88-1.36ZM661.59,359.25c-1.65,0-2.95.54-3.9,1.62-.95,1.08-1.52,2.58-1.71,4.5h10.7c-.03-1.81-.44-3.29-1.25-4.42s-2.09-1.7-3.84-1.7Z"/>
    <path class="cls-1" d="M683.63,378.61c-1.86,0-3.51-.39-4.96-1.16-1.45-.77-2.59-1.97-3.41-3.6-.82-1.63-1.24-3.71-1.24-6.24s.43-4.79,1.29-6.44c.86-1.65,2.03-2.87,3.51-3.64,1.48-.77,3.16-1.16,5.04-1.16,1.07,0,2.1.11,3.1.34.99.23,1.8.5,2.43.82l-1.06,2.92c-.63-.24-1.36-.47-2.2-.68-.84-.21-1.62-.32-2.35-.32-4.13,0-6.2,2.71-6.2,8.12,0,2.59.5,4.57,1.51,5.94s2.5,2.06,4.49,2.06c1.15,0,2.16-.12,3.04-.36.88-.24,1.68-.53,2.41-.88v3.12c-.71.37-1.48.66-2.33.86-.85.2-1.88.3-3.08.3Z"/>
    <path class="cls-1" d="M700.61,375.73c.52,0,1.06-.05,1.61-.14.55-.09.99-.19,1.33-.3v2.68c-.37.19-.89.34-1.57.46-.68.12-1.33.18-1.96.18-1.1,0-2.11-.19-3.04-.58-.93-.39-1.68-1.06-2.25-2.02-.58-.96-.86-2.31-.86-4.04v-12.48h-2.98v-1.68l3.02-1.4,1.37-4.56h2.04v4.92h6.08v2.72h-6.08v12.4c0,1.31.31,2.27.92,2.9.61.63,1.4.94,2.37.94Z"/>
    <path class="cls-1" d="M709.08,348.73c.52,0,.99.18,1.39.54.41.36.61.93.61,1.7s-.2,1.31-.61,1.68-.87.56-1.39.56c-.58,0-1.06-.19-1.45-.56s-.59-.93-.59-1.68.2-1.34.59-1.7c.39-.36.88-.54,1.45-.54ZM710.76,356.77v21.44h-3.45v-21.44h3.45Z"/>
    <path class="cls-1" d="M721.62,378.21l-7.96-21.44h3.69l4.47,12.64c.21.59.43,1.24.67,1.96.23.72.44,1.41.63,2.06.18.65.31,1.21.39,1.66h.16c.1-.45.25-1.01.45-1.68.2-.67.42-1.36.67-2.08s.46-1.36.65-1.92l4.47-12.64h3.68l-8,21.44h-3.96Z"/>
    <path class="cls-1" d="M738.25,348.73c.52,0,.99.18,1.39.54.41.36.61.93.61,1.7s-.2,1.31-.61,1.68-.87.56-1.39.56c-.58,0-1.06-.19-1.45-.56s-.59-.93-.59-1.68.2-1.34.59-1.7c.39-.36.88-.54,1.45-.54ZM739.93,356.77v21.44h-3.45v-21.44h3.45Z"/>
    <path class="cls-1" d="M753.19,375.73c.52,0,1.06-.05,1.61-.14.55-.09.99-.19,1.33-.3v2.68c-.37.19-.89.34-1.57.46-.68.12-1.33.18-1.96.18-1.1,0-2.11-.19-3.04-.58-.93-.39-1.68-1.06-2.25-2.02-.58-.96-.86-2.31-.86-4.04v-12.48h-2.98v-1.68l3.02-1.4,1.37-4.56h2.04v4.92h6.08v2.72h-6.08v12.4c0,1.31.31,2.27.92,2.9.61.63,1.4.94,2.37.94Z"/>
    <path class="cls-1" d="M756.6,356.77h3.69l4.55,12.2c.39,1.07.75,2.09,1.06,3.06.31.97.55,1.9.71,2.78h.16c.16-.67.41-1.54.75-2.62.34-1.08.69-2.17,1.06-3.26l4.27-12.16h3.72l-9.06,24.4c-.73,2.03-1.68,3.64-2.84,4.84-1.16,1.2-2.76,1.8-4.8,1.8-.63,0-1.18-.03-1.65-.1-.47-.07-.88-.14-1.22-.22v-2.8c.29.05.63.11,1.04.16.4.05.83.08,1.27.08,1.2,0,2.18-.35,2.92-1.04.75-.69,1.33-1.61,1.74-2.76l1.1-2.84-8.47-21.52Z"/>
  </g>
</svg>